# xmcd CD database file
# Copyright (C) 1993-1996 Ti Kan
#
# Track frame offsets:
#	150
#	9067
#	21497
#	31160
#	43227
#	53707
#	65402
#	76832
#	88052
#	99352
#	109240
#	118017
#	129617
#	142370
#	156470
#	167697
#
# Disc length: 2392 seconds
#
# Revision: 1
# Processed by: cddbd v1.4b41PL1 Copyright (c) Steve Scherf et al.
# Submitted via: xmcd 2.0
#
DISCID=d6095610
DTITLE=Country Music Collection (4/4)
DYEAR=1900
DGENRE=
TTITLE0=A Little Bitty Tear (Burl Ives)
TTITLE1=Listen To A Country Song (Lynn Anderson)
TTITLE2=Building Heartaches (Willie Nelson)
TTITLE3=Right Or Wrong (Wanda Jackson)
TTITLE4=Abilene (George Hamilton IV)
TTITLE5=A Poem For My Little Lady (Kenny Rogers And The First Editions)
TTITLE6=The Happiness Of Having You (Live) (Charlie Pride)
TTITLE7=I'll Share My World With You (George Jones)
TTITLE8=Oh, Lonesome Me (Don Gibson)
TTITLE9=Poor Little Fool (Ricky Nelson)
TTITLE10=They Don't Make 'em Like My Daddy Anymore (Live) (Loretty Lynn)
TTITLE11=Hey Good Lookin' (Johnny Cash)
TTITLE12=Wolverton Mountain (Claude King)
TTITLE13=Mr. Walker, It's All Over (Billie Jo Spears)
TTITLE14=Sally Was A Good Old Girl (Waylon Jennings)
TTITLE15=U.S. Of America (Donna Fargo)
EXTD=
EXTT0=
EXTT1=
EXTT2=
EXTT3=
EXTT4=
EXTT5=
EXTT6=
EXTT7=
EXTT8=
EXTT9=
EXTT10=
EXTT11=
EXTT12=
EXTT13=
EXTT14=
EXTT15=
PLAYORDER=
